<svg width="31" height="30" viewBox="0 0 31 30" fill="none" xmlns="http://www.w3.org/2000/svg">
<path fill-rule="evenodd" clip-rule="evenodd" d="M15.5 30C23.7843 30 30.5 23.2843 30.5 15C30.5 6.71573 23.7843 0 15.5 0C7.21573 0 0.5 6.71573 0.5 15C0.5 23.2843 7.21573 30 15.5 30Z" fill="#1E2E36"/>
<path fill-rule="evenodd" clip-rule="evenodd" d="M15.5 30C23.7843 30 30.5 23.2843 30.5 15C30.5 6.71573 23.7843 0 15.5 0C7.21573 0 0.5 6.71573 0.5 15C0.5 23.2843 7.21573 30 15.5 30Z" fill="#1E2E36"/>
<path d="M12 14.8695C12 14.6592 12.0766 14.4488 12.2295 14.2884L17.0443 9.24082C17.3506 8.91973 17.8472 8.91973 18.1533 9.24082C18.4595 9.56178 18.4595 10.0823 18.1533 10.4034L13.893 14.8695L18.1532 19.3357C18.4594 19.6568 18.4594 20.1773 18.1532 20.4982C17.847 20.8194 17.3505 20.8194 17.0442 20.4982L12.2294 15.4507C12.0764 15.2902 12 15.0799 12 14.8695Z" fill="white"/>
</svg>
