<svg width="31" height="32" viewBox="0 0 31 32" fill="none" xmlns="http://www.w3.org/2000/svg">
<path fill-rule="evenodd" clip-rule="evenodd" d="M15.5 31C23.7843 31 30.5 24.2843 30.5 16C30.5 7.71573 23.7843 1 15.5 1C7.21573 1 0.5 7.71573 0.5 16C0.5 24.2843 7.21573 31 15.5 31Z" stroke="#1E2E36"/>
<path d="M19.5217 16.8696C19.5217 17.08 19.4434 17.2903 19.2872 17.4507L14.3677 22.4983C14.0548 22.8194 13.5474 22.8194 13.2346 22.4983C12.9218 22.1774 12.9218 21.6569 13.2346 21.3357L17.5876 16.8696L13.2348 12.4034C12.9219 12.0823 12.9219 11.5619 13.2348 11.2409C13.5476 10.9197 14.0549 10.9197 14.3679 11.2409L19.2873 16.2884C19.4436 16.4489 19.5217 16.6593 19.5217 16.8696Z" fill="#1E2E36"/>
</svg>
